<svg xmlns="http://www.w3.org/2000/svg" viewBox="0 0 512 512" style="enable-background:new 0 0 512 512" xml:space="preserve"><path style="fill:#d6374c" d="M323.348 144.685c-24.798 0-47.862 8.04-67.348 21.738-19.485-13.698-42.55-21.738-67.348-21.738-69.575 0-125.978 62.432-125.978 139.447 0 77.017 49.124 220.265 142.617 220.265 19.261 0 33.197-3.954 50.708-21.466 17.511 17.511 31.447 21.466 50.708 21.466 93.493 0 142.617-143.248 142.617-220.265.002-77.015-56.401-139.447-125.976-139.447z"/><path style="fill:#f4abbe" d="M100.698 284.131H85.489c0-64.312 46.279-116.634 103.164-116.634v15.209c-48.499.001-87.955 45.499-87.955 101.425zM103.306 376.368c-8.271-23.071-14.167-48.335-16.604-71.141l15.124-1.615c2.311 21.64 7.922 45.656 15.796 67.623l-14.316 5.133z"/><path style="fill:#51aa5b" d="M302.537 26.264c-25.701 0-46.536 20.835-46.536 46.536v46.536h46.536c25.701 0 46.536-20.835 46.536-46.536V26.264h-46.536z"/><path style="fill:#7a1b2e" d="M323.348 137.08c-20.81 0-41.215 5.37-59.744 15.626V126.94h38.931c29.853 0 54.139-24.287 54.139-54.14V18.66h-54.139c-15.273 0-29.079 6.367-38.931 16.574V0h-15.209v152.706c-18.528-10.257-38.934-15.626-59.744-15.626-73.657 0-133.581 65.967-133.581 147.051 0 43.845 14.573 99.804 37.127 142.562 13.395 25.394 29.05 45.577 46.532 59.985C159.114 503.48 181.509 512 205.292 512c18.153 0 33.309-3.267 50.708-18.628C273.399 508.733 288.554 512 306.708 512c23.783 0 46.178-8.52 66.564-25.323 17.481-14.409 33.137-34.592 46.532-59.985 22.554-42.758 37.127-98.717 37.127-142.562-.001-81.083-59.925-147.05-133.583-147.05zM302.537 33.869h38.93V72.8c0 21.467-17.465 38.931-38.93 38.931h-38.931V72.8c-.001-21.466 17.463-38.931 38.931-38.931zm103.815 385.728c-33.653 63.802-72.762 77.194-99.643 77.194-16.922 0-29.159-3.066-45.33-19.238l-5.378-5.378-5.378 5.378c-16.171 16.172-28.408 19.238-45.33 19.238-26.882 0-65.99-13.392-99.643-77.194-21.486-40.735-35.37-93.909-35.37-135.466 0-72.698 53.102-131.842 118.373-131.842 22.255 0 44.031 7.039 62.974 20.355l4.373 3.074 4.373-3.074c18.944-13.317 40.719-20.355 62.974-20.355 65.271 0 118.373 59.145 118.373 131.842.001 41.557-13.883 94.731-35.368 135.466z"/><path style="fill:#95e49c" d="M302.537 96.524h-16.118V81.315h16.118c4.694 0 8.513-3.819 8.513-8.514V56.682h15.209V72.8c0 13.082-10.643 23.724-23.722 23.724z"/></svg>