<svg width="500" height="500" id="Layer_1" style="enable-background:new 0 0 500 500" version="1.1" xml:space="preserve" xmlns="http://www.w3.org/2000/svg"><style>.st3{fill:#ab630a}</style><g id="watermelon"><path d="M50.82 406.8 235.1 34.33c5.11-10.34 19.83-10.41 25.05-.13l189.03 372.6S250 556.81 50.82 406.8z" style="fill:#f26e91"/><path d="M50.82 406.8 69 370.05s172.67 118.89 361.54 0l18.64 36.75S250 556.5 50.82 406.8z" style="fill:#00a779"/><path d="m430.54 370.05-10.11-19.93s-170.6 109.17-341.57 0L69 370.05s172.88 118.68 361.54 0z" style="fill:#c4ffc9"/><g><path class="st3" d="M261.78 125.95s-18.77 22.52-9.38 35.36c4.51 6.17 14.26 6.17 18.77 0 9.38-12.84-9.39-35.36-9.39-35.36zM199.32 205.12s-18.77 22.52-9.38 35.36c4.51 6.17 14.26 6.17 18.77 0 9.38-12.84-9.39-35.36-9.39-35.36zM302.38 256.75s-18.77 22.52-9.38 35.36c4.51 6.17 14.26 6.17 18.77 0 9.38-12.84-9.39-35.36-9.39-35.36zM216.67 315.96s-18.77 22.52-9.38 35.36c4.51 6.17 14.26 6.17 18.77 0 9.38-12.84-9.39-35.36-9.39-35.36z"/></g></g></svg>