<svg xmlns="http://www.w3.org/2000/svg" viewBox="0 0 510.878 510.878" style="enable-background:new 0 0 510.878 510.878" xml:space="preserve"><path style="fill:#5c6bc0" d="m403.838 258.078-24-3.2-29.6-3.6c-32.8 3.2-62.4 18.8-82.4 42 4 8.4 4.8 17.6 7.2 29.6 2.8 8 4.4 21.2 4.4 32.8 0 32.8-12.4 62.4-32.4 84.8 21.6 39.6 64 66.4 112.8 66.4 70.8 0 128.4-57.2 128.4-128 0-55.6-34.8-103.2-84.4-120.8z"/><path style="fill:#5c6bc0" d="m375.438 252.878 4.4-.8c8 1.2 14.8 6.8 22.8 6.8.4-4 1.6-10.4 1.6-15.6 0-14.4-2-28.4-6-40.8h.4c-9.2-28.4-28.8-52-53.6-67.6-11.6-7.6-25.6-13.2-37.6-16.4-12-2.4-22-3.6-32.4-3.6h-.8c-4.4 0-8.4.4-12.4.8l-4.8 4 4.8-4c-31.6 3.2-59.6 18-80 39.6-12 12.8-21.2 30-27.2 47.2l-.8.8c-2.4 7.6-4 15.6-5.2 24h3.6c12 0 23.2 1.6 35.2 4.8 0 0-.4 0 0 0v3.6h11.2c28 10.8 50.8 35.2 65.2 61.2 18.8-21.2 46-39.6 75.6-45.2l7.6.8c4-.4 8.4-.4 12.4-.4 5.6-.8 10.8 0 16 .8"/><path style="fill:#5c6bc0" d="M247.038 441.678c20.4-22.8 32.8-53.2 32.8-86 0-11.6-1.6-24.8-4.4-32.8-2.4-10-5.2-16.4-8.8-23.2l1.6-6.4c-19.6-29.6-47.2-50-80-58.4v-3.2c-9.6-8-68.8 3.2-68.8 3.2-54.8 12-95.6 62.8-95.6 122.4 0 70.8 57.2 126.4 128 126.4 38 0 72-16 95.6-42.4"/><path style="fill:#7cb342" d="M451.438 29.678c-70.4-9.2-145.6 13.6-203.2 66.8l1.6 2h-.8c4.4 4 8.8 11.2 13.2 17.6 2.8-.4 7.6-1.6 11.6-2.4l1.2.8h.8c10.4 0 20.4 1.2 32.4 3.6 12 3.2 25.6 9.2 37.6 16.4 24.8 15.6 42.4 39.6 52 67.6 39.6-50.4 58-112.4 53.6-172.4z"/><path style="fill:#7cb342" d="M249.438 98.878c-39.6-52-94.8-84.4-153.6-94.8-26.4 66.8-22.8 146 16 216 2 3.6 4.4 7.6 6.4 11.2l2.4 3.2 4.8-4.8c7.6-1.6 15.2-2.4 23.2-2.8.8-7.2 2.4-14 4.4-20.8l1.2-.8c6-18 15.6-35.6 28.4-49.2 20.4-21.6 48.4-36 80-39.2-4.4-6.4-8.8-14-13.2-18z"/><path d="M397.038 206.478c-.8 0-1.6-.4-2.4-.8-1.6-1.2-2-4-.8-5.6 38-48 57.2-107.2 53.6-167.2-71.2-8-142.4 15.6-196.8 66-1.6 1.6-4 1.6-5.6-.4-1.6-1.6-1.6-4 .4-5.6 56.8-52.4 132-77.2 206.4-67.6 2 .4 3.2 1.6 3.6 3.6 4.4 62.8-15.2 125.2-55.2 176-.8.8-2 1.6-3.2 1.6z"/><path d="M119.038 235.678c-1.2 0-2.8-.8-3.2-2-2.8-4-5.2-8.8-7.2-12.4-38-68.4-44-148-16.4-218.8.8-1.6 2.4-2.8 4.4-2.4 61.6 11.2 117.2 45.2 155.6 96 4.4 4 8 9.2 11.6 15.2l.8 1.2c1.2 2 .8 4.4-1.2 5.6s-4.4.8-5.6-1.2l-.8-1.2c-3.6-5.6-6.4-10-10.4-13.6-.4-.4-.8-.4-.8-.8-36.8-48.8-89.2-81.6-148-92.8-25.6 67.6-19.6 143.6 17.2 208.8 2 4 4.4 8 7.2 12 1.2 2 .8 4.4-1.2 5.6-.8.4-1.2.8-2 .8z"/><path d="M403.038 262.078h-.4c-2-.4-3.6-2.4-3.6-4.4.4-4.8.8-10 .8-14.8 0-13.6-2-26.8-6.4-39.2-8.8-26.8-27.2-50-51.2-65.6-11.6-7.2-24-12.8-37.2-15.6-9.2-2.4-19.2-3.2-29.2-3.2h-.8c-4.8 0-8.4 0-12 .4-29.6 3.2-57.2 16.8-77.6 38.4-12.4 13.2-22 29.2-27.6 46.4-2.4 7.6-4.4 15.2-5.2 23.2-.4 2-2.4 3.6-4.4 3.6-2-.4-3.6-2.4-3.6-4.4 1.2-8.4 2.8-16.8 5.6-24.8 6-18.4 16-35.2 29.2-49.2 21.6-23.2 51.2-37.6 82.4-40.8 4-.4 8-.8 12.8-.8h.8c10.8 0 21.2 1.2 31.2 3.6 14 3.2 27.6 9.2 39.6 16.8 25.6 16.4 45.2 41.2 54.8 69.6 4.4 13.6 6.8 27.6 6.8 42 0 5.2-.4 10.4-.8 15.6-.4 1.6-2 3.2-4 3.2z"/><path d="M359.438 510.878c-48.8 0-93.2-25.6-116-67.2-1.2-2-.4-4.4 1.6-5.6s4.4-.4 5.6 1.6c21.2 38.8 63.2 63.2 109.2 63.2 68.4 0 124-55.6 124-124 0-52.4-33.2-99.2-82.4-116.8-7.6-2.8-16-4.8-24-6-.8 0-1.2 0-2-.4-9.2-1.2-18.8-1.2-27.6-.4-30.8 2.8-56 16-77.6 40-1.6 1.6-4 1.6-5.6.4-1.6-1.6-1.6-4-.4-5.6 22.4-25.2 50.4-39.2 82.4-42.4 9.6-.8 20-.8 29.2.4.8 0 1.6 0 2.4.4 8.8 1.2 17.6 3.6 25.6 6.4 52.4 18.8 87.6 68.8 87.6 124.4.4 72.4-58.8 131.6-132 131.6z"/><path d="M151.838 486.878c-74 0-132.4-57.2-132.4-130 0-59.6 39.2-110 98-125.6 11.2-4.8 21.6-7.2 31.2-7.6h2.8c8.4 0 24.8.4 38 4h.8c31.6 9.2 58.8 30.4 81.2 63.2 0 .4.4.4.4.8 4 8.8 6.4 17.6 9.2 28 3.2 12 3.6 24.4 3.6 35.2 0 32.4-12 63.6-34 88-25.2 28-61.2 44-98.8 44zm-2-255.2h-.8c-8.8.4-18.4 2.4-28.8 6.8h-.4c-55.2 14.8-92.4 62-92.4 118 0 68.4 54.4 122 124.4 122 35.6 0 69.2-15.2 92.8-41.2 20.8-23.2 32-52.4 32-82.8 0-10-.4-21.6-3.6-32.8-2.8-9.6-5.2-18.4-8.8-26.8-21.2-31.2-46.8-51.2-76.8-59.6-12-3.2-27.6-4-36-4h-1.2c0 .4 0 .4-.4.4z"/><path d="M76.638 366.878c-1.2 0-2.4-.4-3.2-1.6-1.6-1.6-1.2-4.4.4-5.6l58.8-48c1.6-1.2 4.4-1.2 5.6.4 1.6 1.6 1.2 4.4-.4 5.6l-58.8 48c-.8.8-1.6 1.2-2.4 1.2z"/><path d="M127.838 374.078c-1.2 0-2.4-.4-3.2-1.6l-43.6-62c-1.2-2-.8-4.4.8-5.6 2-1.2 4.4-.8 5.6.8l43.6 62c1.2 2 .8 4.4-.8 5.6-.8.4-1.6.8-2.4.8zM339.438 487.278c-1.2 0-2.8-.8-3.6-2-1.2-2-.4-4.4 1.6-5.6l56.8-32.4c2-1.2 4.4-.4 5.6 1.6 1.2 2 .4 4.4-1.6 5.6l-56.8 32.4c-.4.4-1.2.4-2 .4z"/><path d="M396.238 487.278c-.8 0-1.2 0-2-.4l-56.8-32.4c-2-1.2-2.4-3.6-1.6-5.6 1.2-2 3.6-2.4 5.6-1.6l56.8 32.4c2 1.2 2.4 3.6 1.6 5.6-.8 1.2-2.4 2-3.6 2zM247.438 163.278c-1.6 0-3.2-.8-3.6-2.4-.8-2 0-4.4 2-5.2l56.8-24.8c2-.8 4.4 0 5.2 2s0 4.4-2 5.2l-56.8 24.8c-.4.4-.8.4-1.6.4z"/><path d="M304.238 163.278c-.4 0-1.2 0-1.6-.4l-56.8-24.8c-2-.8-2.8-3.2-2-5.2s3.2-2.8 5.2-2l56.8 24.8c2 .8 2.8 3.2 2 5.2-.4 1.6-2 2.4-3.6 2.4zM249.838 378.878h-.8c-2-.4-3.6-2.4-3.2-4.8 1.2-6.4 2-12.8 2-19.2 0-11.2-2-22-5.6-32.8-2.4-6.4-5.2-12.4-8.8-18.4-1.2-2-.4-4.4 1.2-5.6 2-1.2 4.4-.4 5.6 1.2 4 6.4 7.2 13.2 9.6 20 4 11.2 6 23.2 6 35.2 0 7.2-.8 14-2 20.8-.4 2-2.4 3.6-4 3.6zM218.638 284.478c-.8 0-2-.4-2.8-1.2-8-7.2-17.2-13.2-27.6-17.6-2-.8-2.8-3.2-2-5.2s3.2-2.8 5.2-2c10.8 4.4 20.8 10.8 29.6 18.8 1.6 1.6 1.6 4 .4 5.6-.4 1.2-1.6 1.6-2.8 1.6zM457.838 402.878h-.8c-2-.4-3.6-2.4-3.2-4.8 1.2-6.4 2-12.8 2-19.2 0-18-5.2-35.6-14.8-50.8-1.2-2-.8-4.4 1.2-5.6s4.4-.8 5.6 1.2c10.4 16.4 16 35.6 16 55.2 0 7.2-.8 14-2 20.8-.4 1.6-2 3.2-4 3.2zM426.638 308.478c-.8 0-2-.4-2.8-1.2-8-7.2-17.6-13.2-27.6-17.6-2-.8-2.8-3.2-2-5.2s3.2-3.2 5.2-2c10.8 4.4 20.8 10.8 29.6 18.8 1.6 1.6 1.6 4 .4 5.6-.4 1.2-1.6 1.6-2.8 1.6zM375.438 255.678h-.4c-2-.4-3.6-2.4-3.6-4.4 1.2-10 .8-20-1.2-29.6-.4-2.4-1.2-4.8-1.6-6.8-.8-2 .8-4.4 2.8-4.8 2-.8 4.4.8 4.8 2.8.8 2.4 1.2 4.8 2 7.6 2 10.4 2.8 21.2 1.6 32-.4 1.6-2.4 3.2-4.4 3.2zM361.438 192.478c-1.2 0-2.8-.8-3.6-2-5.6-9.2-12.8-17.6-21.2-24.4-1.6-1.2-2-4-.4-5.6 1.2-1.6 4-2 5.6-.4 9.2 7.6 16.8 16.4 23.2 26.4 1.2 2 .4 4.4-1.2 5.6-1.2 0-1.6.4-2.4.4zM182.238 158.878c-1.2 0-2.8-.8-3.6-2l-52.8-92.4c-1.2-2-.4-4.4 1.6-5.6 2-1.2 4.4-.4 5.6 1.6l52.8 92.4c1.2 2 .4 4.4-1.6 5.6-.4.4-1.2.4-2 .4zM344.238 138.478c-1.2 0-2-.4-2.8-1.2-1.6-1.6-1.6-4 0-5.6l56.8-55.6c1.6-1.6 4-1.6 5.6 0s1.6 4 0 5.6l-56.8 55.6c-.8.8-1.6 1.2-2.8 1.2z"/></svg>