<svg xmlns="http://www.w3.org/2000/svg" viewBox="0 0 512.001 512.001" style="enable-background:new 0 0 512.001 512.001" xml:space="preserve"><path style="fill:#a5eb78" d="M123.581 5.386c-3.291-.481-6.731.513-9.243 2.76a11.323 11.323 0 0 0-3.767 8.886c3.788 95.65 75.383 175.491 170.236 189.834.357.053.715.095 1.068.115a11.308 11.308 0 0 0 8.18-2.869 11.323 11.323 0 0 0 3.767-8.886C290.036 99.565 218.44 19.729 123.581 5.386z"/><path style="fill:#8cd76e" d="M280.807 206.867c.357.053.715.095 1.068.115a11.308 11.308 0 0 0 8.18-2.869L114.59 8.006c-.075.063-.179.074-.252.14a11.323 11.323 0 0 0-3.767 8.886c3.787 95.651 75.382 175.492 170.236 189.835z"/><path style="fill:#a5eb78" d="M387.222 7.043c3.37-.304 6.808.9 9.233 3.325a11.517 11.517 0 0 1 3.325 9.239c-9.244 96.946-86.475 174.007-183.634 183.224-.366.034-.731.056-1.091.056a11.505 11.505 0 0 1-8.147-3.376 11.52 11.52 0 0 1-3.325-9.239C212.825 93.316 290.056 16.26 387.222 7.043z"/><path style="fill:#8cd76e" d="M216.145 202.832c-.366.034-.731.056-1.091.056a11.505 11.505 0 0 1-8.147-3.376l189.3-189.3c.072.069.177.085.248.157a11.517 11.517 0 0 1 3.325 9.239c-9.244 96.946-86.475 174.008-183.635 183.224z"/><path style="fill:#ff6464" d="M439.832 283.643c0 98.431-97.195 220.359-183.831 220.359S72.171 382.074 72.171 283.643s82.304-147.397 183.83-147.397c101.527-.001 183.831 48.966 183.831 147.397z"/><path style="fill:#d2555a" d="M178.84 276.676c0-87.869 39.505-128.793 91.991-137.595-10.459-1.247-21.281-1.856-32.367-1.856-89.379 0-167.634 54.464-167.634 154.774s111.186 197.412 158 209.002c10.691 2.647 22.096 4.122 27.17 3-47.736-15.921-77.16-133.619-77.16-227.325z"/><path style="fill:#2d2b29" d="M390.739 166.595c-12.678-9.354-27.109-17.063-43.026-23.054a175.996 175.996 0 0 0 12.811-11.602c17.415-17.415 30.849-38.205 38.848-60.123 7.831-21.455 10.334-43.524 7.241-63.824a8.001 8.001 0 0 0-6.704-6.704c-20.297-3.092-42.367-.589-63.823 7.241-21.917 8-42.708 21.433-60.123 38.848a173.545 173.545 0 0 0-19.96 23.904 173.52 173.52 0 0 0-19.967-23.904c-17.416-17.415-38.206-30.85-60.124-38.849-21.455-7.83-43.525-10.333-63.824-7.241a8.001 8.001 0 0 0-6.704 6.704c-3.093 20.298-.589 42.368 7.241 63.824 8 21.917 21.433 42.708 38.848 60.123a176.06 176.06 0 0 0 12.813 11.603c-15.917 5.991-30.347 13.699-43.024 23.053-37.351 27.559-57.093 68.034-57.093 117.048 0 48.573 22.895 105.459 61.244 152.167 18.469 22.496 39.615 41.319 61.152 54.435C210.271 504.681 233.631 512 256 512c22.368 0 45.728-7.32 69.435-21.756 21.537-13.116 42.683-31.939 61.152-54.435 38.349-46.708 61.244-103.594 61.244-152.167.001-49.014-19.741-89.488-57.092-117.047zM287.277 58.692c29.565-29.564 68.965-45.424 104.237-42.304 3.118 35.273-12.739 74.672-42.304 104.237a158.257 158.257 0 0 1-19.97 16.925c-12.524-3.46-25.801-5.976-39.732-7.51l28.112-28.112a7.998 7.998 0 0 0 0-11.313 8 8 0 0 0-11.313 0l-27.891 27.891c-3.067-11.018-7.493-21.841-13.154-32.223 6.17-9.867 13.558-19.133 22.015-27.591zM162.79 120.625c-29.565-29.565-45.422-68.964-42.304-104.237 35.276-3.12 74.672 12.739 104.237 42.304 20.042 20.042 33.912 44.488 39.694 69.67a316.566 316.566 0 0 0-28.461.509L197.7 90.615a8 8 0 0 0-11.313 0 7.998 7.998 0 0 0 0 11.313l28.991 28.991c-11.351 1.548-22.242 3.765-32.616 6.631a158.326 158.326 0 0 1-19.972-16.925zM375.5 424.071c-4.222.22-7.58 3.702-7.58 7.979v1.002c-17.543 19.886-36.701 35.686-55.952 46.479v-7.508a8 8 0 0 0-16 0v7.995a7.974 7.974 0 0 0 2.825 6.094c-14.638 6.448-29.127 9.89-42.791 9.89-13.664 0-28.154-3.442-42.792-9.891a7.974 7.974 0 0 0 2.823-6.093v-7.995a8 8 0 0 0-16 0v7.506c-19.251-10.793-38.408-26.594-55.952-46.48v-.999c0-4.275-3.356-7.757-7.577-7.979a285.054 285.054 0 0 1-16.534-22.622c.078-.449.127-.907.127-1.378v-7.995a8 8 0 0 0-10.455-7.613c-5.319-9.497-9.99-19.149-13.946-28.827a7.956 7.956 0 0 0 .417-2.534v-1.999a8.001 8.001 0 0 0-4.916-7.382c-7.165-20.604-11.025-41.064-11.025-60.077 0-.789.022-1.561.033-2.342.559 3.872 3.881 6.85 7.908 6.85a8 8 0 0 0 8-8v-7.995a7.995 7.995 0 0 0-15.272-3.319c4.692-51.484 33.979-84.471 73.091-103.479.152.183.311.362.48.531a8.045 8.045 0 0 0 5.65 2.34c2.11 0 4.17-.85 5.66-2.34a8.05 8.05 0 0 0 2.34-5.66 7.69 7.69 0 0 0-.066-.96c10.372-3.979 21.252-7.114 32.414-9.46a7.976 7.976 0 0 0-.377 2.426v7.995a8 8 0 0 0 16 0v-7.995c0-1.86-.64-3.567-1.705-4.925 13.685-2.068 27.63-3.051 41.427-3.063-4.304.131-7.754 3.652-7.754 7.988v7.995a8 8 0 0 0 16 0v-7.995c0-4.336-3.451-7.857-7.755-7.988 13.797.012 27.742.994 41.428 3.062a7.957 7.957 0 0 0-1.705 4.926v7.995a8 8 0 0 0 16 0v-7.995c0-.846-.133-1.661-.377-2.427 11.16 2.345 22.037 5.479 32.407 9.457-.04.32-.067.641-.067.964 0 2.11.86 4.17 2.35 5.66a8.045 8.045 0 0 0 5.65 2.34c2.11 0 4.17-.85 5.66-2.34.169-.169.328-.348.48-.532 39.114 19.008 68.403 51.997 73.093 103.487a7.994 7.994 0 0 0-7.276-4.688 8 8 0 0 0-8 8v7.995a8 8 0 0 0 8 8c4.033 0 7.359-2.987 7.911-6.867.011.787.033 1.565.033 2.36 0 19.012-3.86 39.472-11.024 60.076a8 8 0 0 0-4.919 7.383v1.999c0 .888.151 1.74.418 2.538-3.956 9.678-8.626 19.329-13.945 28.825a8 8 0 0 0-10.458 7.612v7.995c0 .472.049.933.127 1.382a285.368 285.368 0 0 1-16.532 22.616z"/><path style="fill:#2d2b29" d="M279.984 184.208a8 8 0 0 0-8 8v7.995a8 8 0 0 0 16 0v-7.995a8 8 0 0 0-8-8zM232.015 184.208a8 8 0 0 0-8 8v7.995a8 8 0 0 0 16 0v-7.995c.001-4.418-3.58-8-8-8zM184.047 184.208a8 8 0 0 0-8 8v7.995a8 8 0 0 0 16 0v-7.995a8 8 0 0 0-8-8zM327.952 184.208a8 8 0 0 0-8 8v7.995a8 8 0 0 0 16 0v-7.995a8 8 0 0 0-8-8zM375.921 184.208a8 8 0 0 0-8 8v7.995a8 8 0 0 0 16 0v-7.995a8 8 0 0 0-8-8zM136.08 184.208a8 8 0 0 0-8 8v7.995a8 8 0 0 0 16 0v-7.995a8 8 0 0 0-8-8zM279.984 264.155a8 8 0 0 0-8 8v7.995a8 8 0 0 0 16 0v-7.995a8 8 0 0 0-8-8zM232.015 264.155a8 8 0 0 0-8 8v7.995a8 8 0 0 0 16 0v-7.995c.001-4.419-3.58-8-8-8zM184.047 264.155a8 8 0 0 0-8 8v7.995a8 8 0 0 0 16 0v-7.995a8 8 0 0 0-8-8zM327.952 264.155a8 8 0 0 0-8 8v7.995a8 8 0 0 0 16 0v-7.995a8 8 0 0 0-8-8zM375.921 264.155a8 8 0 0 0-8 8v7.995a8 8 0 0 0 16 0v-7.995a8 8 0 0 0-8-8zM136.08 264.155a8 8 0 0 0-8 8v7.995a8 8 0 0 0 16 0v-7.995a8 8 0 0 0-8-8zM279.984 344.102a8 8 0 0 0-8 8v7.995a8 8 0 0 0 16 0v-7.995a8 8 0 0 0-8-8zM232.015 344.102a8 8 0 0 0-8 8v7.995a8 8 0 0 0 16 0v-7.995c.001-4.418-3.58-8-8-8zM184.047 344.102a8 8 0 0 0-8 8v7.995a8 8 0 0 0 16 0v-7.995a8 8 0 0 0-8-8zM327.952 344.102a8 8 0 0 0-8 8v7.995a8 8 0 0 0 16 0v-7.995a8 8 0 0 0-8-8zM375.921 344.102a8 8 0 0 0-8 8v7.995a8 8 0 0 0 16 0v-7.995a8 8 0 0 0-8-8zM136.08 344.102a8 8 0 0 0-8 8v7.995a8 8 0 0 0 16 0v-7.995a8 8 0 0 0-8-8zM279.984 424.049a8 8 0 0 0-8 8v7.995a8 8 0 0 0 16 0v-7.995a8 8 0 0 0-8-8zM232.015 424.049a8 8 0 0 0-8 8v7.995a8 8 0 0 0 16 0v-7.995c.001-4.418-3.58-8-8-8zM184.047 424.049a8 8 0 0 0-8 8v7.995a8 8 0 0 0 16 0v-7.995a8 8 0 0 0-8-8zM327.952 424.049a8 8 0 0 0-8 8v7.995a8 8 0 0 0 16 0v-7.995a8 8 0 0 0-8-8zM303.968 224.182a8 8 0 0 0-8 8v7.994a8 8 0 0 0 16 0v-7.994a8 8 0 0 0-8-8zM256 224.182a8 8 0 0 0-8 8v7.994a8 8 0 0 0 16 0v-7.994a8 8 0 0 0-8-8zM208.031 224.182a8 8 0 0 0-8 8v7.994a8 8 0 0 0 16 0v-7.994a8 8 0 0 0-8-8zM351.936 224.182a8 8 0 0 0-8 8v7.994a8 8 0 0 0 16 0v-7.994a8 8 0 0 0-8-8zM399.904 248.176a8 8 0 0 0 8-8v-7.994a8 8 0 0 0-16 0v7.994a8 8 0 0 0 8 8zM160.064 224.182a8 8 0 0 0-8 8v7.994a8 8 0 0 0 16 0v-7.994a8 8 0 0 0-8-8zM112.096 224.182a8 8 0 0 0-8 8v7.994a8 8 0 0 0 16 0v-7.994a8 8 0 0 0-8-8zM303.968 304.129a8 8 0 0 0-8 8v7.995a8 8 0 0 0 16 0v-7.995a8 8 0 0 0-8-8zM256 304.129a8 8 0 0 0-8 8v7.995a8 8 0 0 0 16 0v-7.995a8 8 0 0 0-8-8zM208.031 304.129a8 8 0 0 0-8 8v7.995a8 8 0 0 0 16 0v-7.995a8 8 0 0 0-8-8zM351.936 304.129a8 8 0 0 0-8 8v7.995a8 8 0 0 0 16 0v-7.995a8 8 0 0 0-8-8zM399.904 328.124a8 8 0 0 0 8-8v-7.995a8 8 0 0 0-16 0v7.995a8 8 0 0 0 8 8zM160.064 304.129a8 8 0 0 0-8 8v7.995a8 8 0 0 0 16 0v-7.995a8 8 0 0 0-8-8zM112.096 304.129a8 8 0 0 0-8 8v7.995a8 8 0 0 0 16 0v-7.995a8 8 0 0 0-8-8zM303.968 384.075a8 8 0 0 0-8 8v7.995a8 8 0 0 0 16 0v-7.995a8 8 0 0 0-8-8zM256 384.075a8 8 0 0 0-8 8v7.995a8 8 0 0 0 16 0v-7.995a8 8 0 0 0-8-8zM208.031 384.075a8 8 0 0 0-8 8v7.995a8 8 0 0 0 16 0v-7.995a8 8 0 0 0-8-8zM351.936 384.075a8 8 0 0 0-8 8v7.995a8 8 0 0 0 16 0v-7.995a8 8 0 0 0-8-8zM160.064 384.075a8 8 0 0 0-8 8v7.995a8 8 0 0 0 16 0v-7.995a8 8 0 0 0-8-8zM256 464.023a8 8 0 0 0-8 8v7.995a8 8 0 0 0 16 0v-7.995a8 8 0 0 0-8-8z"/></svg>