<svg width="1400" height="700" fill="none" xmlns="http://www.w3.org/2000/svg">
  <path fill="#000" d="M0 0h1400v700H0z"/>
  <path d="m518 85 182 312L882 85h-71.5L700 273.5 589.5 85H518Z" fill="#41B883"/>
  <path d="M589.5 85 700 273.5 810.5 85h-65l-44.651 78.164L654.5 85h-65Z" fill="#35495E"/>
  <path d="M132.754 580V452.734h47.812c29.18 0 44.737 17.754 44.825 42.188-.088 24.346-15.821 42.012-45.176 42.012h-24.61V580h-22.851Zm22.851-61.875h21.446c17.226-.088 24.961-9.756 24.961-23.203 0-13.623-7.735-23.027-24.961-23.027h-21.446v46.23ZM242.793 580v-95.449h21.797v15.82h1.055c3.427-10.986 12.568-17.226 23.554-17.226 2.461 0 5.977.263 8.086.527v20.742c-2.021-.703-6.68-1.318-10.371-1.406-12.48.088-21.621 8.701-21.621 20.742V580h-22.5Zm106.348 1.934c-27.862 0-45.703-19.776-45.703-49.219 0-29.707 17.841-49.395 45.703-49.395 27.949 0 45.791 19.688 45.703 49.395.088 29.443-17.754 49.219-45.703 49.219Zm-23.028-49.395c0 17.49 7.647 31.465 23.203 31.465 15.293 0 22.94-13.975 22.852-31.465.088-17.49-7.559-31.553-22.852-31.465-15.556-.088-23.203 13.975-23.203 31.465Zm168.047-47.988L460.059 580h-24.61l-34.101-95.449h23.906l21.973 71.015h1.054l22.149-71.015h23.73ZM508.223 580v-95.449h22.5V580h-22.5Zm-1.582-121.289c0-6.68 5.888-12.129 13.007-12.129 7.12 0 13.008 5.449 13.008 12.129 0 6.768-5.888 12.217-13.008 12.305-7.119-.088-13.007-5.537-13.007-12.305Zm81.035 123.047c-22.412-.088-39.375-18.018-39.375-49.395 0-31.816 17.402-49.043 39.551-49.043 16.787 0 23.818 10.108 27.246 16.875h.879v-47.461h22.324V580h-21.973v-15.117h-1.23c-3.604 7.031-10.899 16.787-27.422 16.875Zm-16.524-49.57c0 18.017 7.91 31.113 22.676 31.113 14.502 0 22.676-12.481 22.676-31.113 0-18.545-8.086-30.499-22.676-30.586-14.941.087-22.676 12.832-22.676 30.586Zm132.188 49.746c-28.74 0-46.406-19.161-46.406-49.043 0-29.532 17.929-49.571 45.175-49.571 23.379 0 43.594 14.678 43.594 48.164v7.032h-66.621c.352 16.259 9.932 25.927 24.434 25.839 9.843.088 16.435-4.13 19.336-9.843h21.972c-4.043 16.523-19.336 27.422-41.484 27.422Zm-24.17-58.711h45.088c-.088-13.008-8.877-22.5-21.797-22.5-13.447 0-22.5 10.371-23.291 22.5Zm135.791-76.465L774.004 599.16h-19.688l41.133-152.402h19.512Zm36.562 5.976V580h-22.851V452.734h22.851Zm45.176 71.368V580h-22.5v-95.449h21.446v16.172h1.23c4.307-10.635 14.063-17.403 28.301-17.403 19.775 0 32.783 13.008 32.695 35.86V580h-22.324v-57.305c0-12.832-6.943-20.478-18.633-20.39-11.865-.088-20.215 7.91-20.215 21.797Zm82.617-39.551h22.504v100.898c0 20.655-12.132 30.322-33.226 30.41-1.494-.088-2.813-.088-4.571-.175v-18.282c1.319.176 2.286.176 3.34.176 8.614 0 12.041-4.307 11.953-12.305V484.551Zm-1.757-25.84c0-6.68 5.888-12.129 13.007-12.129 7.12 0 13.004 5.449 13.004 12.129 0 6.768-5.884 12.217-13.004 12.305-7.119-.088-13.007-5.537-13.007-12.305Zm88.061 123.223c-28.74 0-46.4-19.161-46.4-49.043 0-29.532 17.93-49.571 45.17-49.571 23.38 0 43.6 14.678 43.6 48.164v7.032h-66.62c.35 16.259 9.93 25.927 24.43 25.839 9.84.088 16.44-4.13 19.34-9.843h21.97c-4.04 16.523-19.34 27.422-41.49 27.422Zm-24.16-58.711h45.08c-.08-13.008-8.87-22.5-21.79-22.5-13.45 0-22.5 10.371-23.29 22.5Zm125.59 58.711c-28.48 0-45.7-20.391-45.7-49.219 0-29.268 17.75-49.395 45.7-49.395 23.12 0 39.38 13.535 40.96 34.102h-21.45c-1.76-9.141-8.44-16.084-19.33-16.172-13.89.088-23.21 11.689-23.21 30.938 0 19.687 9.14 31.376 23.21 31.464 9.93-.088 17.31-5.888 19.33-16.172h21.45c-1.67 20.127-16.97 34.454-40.96 34.454Zm105.47-97.383v17.226h-18.81v49.571c0 9.14 4.57 10.986 10.2 11.074 2.63.088 7.03-.176 9.84-.352v18.282c-2.64.439-6.94.966-12.66.878-16.87.088-29.88-8.261-29.7-26.191v-53.262h-13.71v-17.226h13.71v-22.852h22.32v22.852h18.81Z" fill="#fff"/>
</svg>